<svg width="20" height="21" viewBox="0 0 20 21" fill="none" xmlns="http://www.w3.org/2000/svg">
<g clip-path="url(#clip0_115_405)">
<path d="M8.16667 10.6333H3.5C3.33431 10.6333 3.2 10.499 3.2 10.3333V4C3.2 3.83431 3.33431 3.7 3.5 3.7H8.16667C8.33235 3.7 8.46667 3.83431 8.46667 4V10.3333C8.46667 10.499 8.33235 10.6333 8.16667 10.6333ZM8.16667 17.3H3.5C3.33431 17.3 3.2 17.1657 3.2 17V14C3.2 13.8343 3.33431 13.7 3.5 13.7H8.16667C8.33235 13.7 8.46667 13.8343 8.46667 14V17C8.46667 17.1657 8.33235 17.3 8.16667 17.3ZM16.5 17.3H11.8333C11.6676 17.3 11.5333 17.1657 11.5333 17V10.6667C11.5333 10.501 11.6676 10.3667 11.8333 10.3667H16.5C16.6657 10.3667 16.8 10.501 16.8 10.6667V17C16.8 17.1657 16.6657 17.3 16.5 17.3ZM11.5333 7V4C11.5333 3.83431 11.6676 3.7 11.8333 3.7H16.5C16.6657 3.7 16.8 3.83431 16.8 4V7C16.8 7.16569 16.6657 7.3 16.5 7.3H11.8333C11.6676 7.3 11.5333 7.16569 11.5333 7Z" stroke="#90A0B7" stroke-width="1.4"/>
</g>
<defs>
<clipPath id="clip0_115_405">
<rect width="20" height="20" fill="white" transform="translate(0 0.5)"/>
</clipPath>
</defs>
</svg>
