<svg width="24" height="24" viewBox="0 0 24 24" fill="none" xmlns="http://www.w3.org/2000/svg">
<g id="clarity:note-edit-solid" clip-path="url(#clip0_130_484)">
<path id="Vector" d="M22.0001 4.26667L19.5334 1.8C19.3214 1.59785 19.0397 1.48508 18.7467 1.48508C18.4538 1.48508 18.1721 1.59785 17.9601 1.8L15.7667 4H4.00008C3.64646 4 3.30732 4.14048 3.05727 4.39052C2.80722 4.64057 2.66675 4.97971 2.66675 5.33333V20C2.66675 20.3536 2.80722 20.6928 3.05727 20.9428C3.30732 21.1929 3.64646 21.3333 4.00008 21.3333H18.6667C19.0204 21.3333 19.3595 21.1929 19.6096 20.9428C19.8596 20.6928 20.0001 20.3536 20.0001 20V7.84L22.0001 5.84C22.2085 5.63126 22.3256 5.34832 22.3256 5.05333C22.3256 4.75834 22.2085 4.47541 22.0001 4.26667ZM12.5534 13.42L9.76008 14.04L10.4267 11.2733L16.7934 4.89333L18.9467 7.04667L12.5534 13.42ZM19.6667 6.28667L17.5134 4.13333L18.7467 2.9L20.9001 5.05333L19.6667 6.28667Z" fill="#007EF2"/>
</g>
<defs>
<clipPath id="clip0_130_484">
<rect width="24" height="24" fill="white"/>
</clipPath>
</defs>
</svg>
