<svg width="20" height="20" viewBox="0 0 20 20" fill="none" xmlns="http://www.w3.org/2000/svg">
<g id="Property 1=Variant3" clip-path="url(#clip0_0_204)">
<path id="Vector" d="M6.81106 6.11112C6.81106 4.34911 8.23793 2.92223 9.99994 2.92223C11.762 2.92223 13.1888 4.34911 13.1888 6.11112C13.1888 7.87313 11.762 9.30001 9.99994 9.30001C8.23793 9.30001 6.81106 7.87313 6.81106 6.11112ZM2.92217 14.8611C2.92217 14.4717 3.11169 14.0788 3.54717 13.6769C3.9874 13.2706 4.63067 12.904 5.39793 12.5967C6.93358 11.9815 8.78953 11.6722 9.99994 11.6722C11.2104 11.6722 13.0663 11.9815 14.602 12.5967C15.3692 12.904 16.0125 13.2706 16.4527 13.6769C16.8882 14.0788 17.0777 14.4717 17.0777 14.8611V17.0778H2.92217V14.8611Z" stroke="white" stroke-width="1.4"/>
</g>
<defs>
<clipPath id="clip0_0_204">
<rect width="20" height="20" fill="white"/>
</clipPath>
</defs>
</svg>
