<svg width="24" height="24" viewBox="0 0 24 24" fill="none" xmlns="http://www.w3.org/2000/svg">
<path d="M7.24988 7.6C7.24988 8.566 8.03388 9.35 8.99988 9.35H14.9999C15.464 9.35 15.9091 9.16563 16.2373 8.83744C16.5655 8.50925 16.7499 8.06413 16.7499 7.6V4.276C16.7499 4.124 16.8739 4 17.0259 4C17.098 3.99987 17.1693 4.01536 17.2349 4.04539C17.3005 4.07543 17.3588 4.1193 17.4059 4.174L20.3689 7.629C20.7793 8.10775 20.9936 8.72391 20.9689 9.354L20.6269 18.098C20.6016 18.7434 20.3274 19.3539 19.862 19.8017C19.3965 20.2495 18.7758 20.4997 18.1299 20.5H17.7509C17.6183 20.5 17.4911 20.4473 17.3973 20.3536C17.3036 20.2598 17.2509 20.1326 17.2509 20V15C17.2509 14.5359 17.0665 14.0908 16.7383 13.7626C16.4101 13.4344 15.965 13.25 15.5009 13.25H8.50088C8.27098 13.2499 8.04331 13.295 7.83087 13.3829C7.61844 13.4708 7.4254 13.5997 7.26279 13.7622C7.10019 13.9247 6.97119 14.1177 6.88318 14.3301C6.79518 14.5425 6.74988 14.7701 6.74988 15V20C6.74988 20.1326 6.6972 20.2598 6.60343 20.3536C6.50966 20.4473 6.38249 20.5 6.24988 20.5H6.11288C5.53091 20.5001 4.96888 20.288 4.53206 19.9034C4.09524 19.5189 3.8136 18.9883 3.73988 18.411C3.24609 14.553 3.22494 10.6491 3.67688 6.786L3.73688 6.266C3.80992 5.64178 4.10969 5.06613 4.57923 4.64839C5.04878 4.23065 5.6554 3.99991 6.28388 4H6.74988C6.88249 4 7.00966 4.05268 7.10343 4.14645C7.1972 4.24022 7.24988 4.36739 7.24988 4.5V7.6Z" fill="#007EF2"/>
<path d="M8.25 20C8.25 20.1326 8.30268 20.2598 8.39645 20.3536C8.49021 20.4473 8.61739 20.5 8.75 20.5H15.25C15.3826 20.5 15.5098 20.4473 15.6036 20.3536C15.6973 20.2598 15.75 20.1326 15.75 20V15C15.75 14.9337 15.7237 14.8701 15.6768 14.8232C15.6299 14.7763 15.5663 14.75 15.5 14.75H8.5C8.4337 14.75 8.37011 14.7763 8.32322 14.8232C8.27634 14.8701 8.25 14.9337 8.25 15V20ZM15.25 4.5C15.25 4.36739 15.1973 4.24021 15.1036 4.14645C15.0098 4.05268 14.8826 4 14.75 4H9.25C9.11739 4 8.99021 4.05268 8.89645 4.14645C8.80268 4.24021 8.75 4.36739 8.75 4.5V7.6C8.75 7.738 8.862 7.85 9 7.85H15C15.0663 7.85 15.1299 7.82366 15.1768 7.77678C15.2237 7.72989 15.25 7.6663 15.25 7.6V4.5Z" fill="#007EF2"/>
</svg>
