<svg width="20" height="21" viewBox="0 0 20 21" fill="none" xmlns="http://www.w3.org/2000/svg">
<g clip-path="url(#clip0_115_239)">
<path d="M2.50008 3.7H16.6667C16.7385 3.7 16.8001 3.7616 16.8001 3.83333V8.83333C16.8001 8.90507 16.7385 8.96667 16.6667 8.96667H2.50008C2.42835 8.96667 2.36675 8.90507 2.36675 8.83333V3.83333C2.36675 3.7616 2.42835 3.7 2.50008 3.7ZM2.50008 12.0333H16.6667C16.7385 12.0333 16.8001 12.0949 16.8001 12.1667V17.1667C16.8001 17.2384 16.7385 17.3 16.6667 17.3H2.50008C2.42835 17.3 2.36675 17.2384 2.36675 17.1667V12.1667C2.36675 12.0949 2.42835 12.0333 2.50008 12.0333Z" stroke="#90A0B7" stroke-width="1.4"/>
</g>
<defs>
<clipPath id="clip0_115_239">
<rect width="20" height="20" fill="white" transform="translate(0 0.5)"/>
</clipPath>
</defs>
</svg>
